<svg xmlns="http://www.w3.org/2000/svg" xmlns:xlink="http://www.w3.org/1999/xlink" width="120" zoomAndPan="magnify" viewBox="0 0 90 67.499998" height="90" preserveAspectRatio="xMidYMid meet" version="1.0"><defs><clipPath id="c73a9905f8"><path d="M 7.914062 0 L 82.363281 0 L 82.363281 67 L 7.914062 67 Z M 7.914062 0 " clip-rule="nonzero"/></clipPath></defs><g clip-path="url(#c73a9905f8)"><path fill="#00d8ff" d="M 69.078125 21.863281 C 68.308594 21.601562 67.511719 21.351562 66.6875 21.113281 C 66.824219 20.566406 66.949219 20.023438 67.058594 19.492188 C 68.867188 10.757812 67.683594 3.71875 63.640625 1.402344 C 59.765625 -0.820312 53.425781 1.496094 47.023438 7.035156 C 46.40625 7.566406 45.789062 8.132812 45.175781 8.722656 C 44.761719 8.332031 44.351562 7.953125 43.945312 7.589844 C 37.234375 1.667969 30.507812 -0.824219 26.46875 1.496094 C 22.597656 3.726562 21.449219 10.34375 23.082031 18.621094 C 23.238281 19.421875 23.421875 20.238281 23.628906 21.070312 C 22.679688 21.339844 21.757812 21.625 20.878906 21.929688 C 13.011719 24.65625 7.988281 28.929688 7.988281 33.359375 C 7.988281 37.9375 13.382812 42.527344 21.578125 45.3125 C 22.222656 45.53125 22.894531 45.738281 23.585938 45.9375 C 23.359375 46.832031 23.164062 47.714844 23 48.574219 C 21.449219 56.710938 22.660156 63.167969 26.523438 65.382812 C 30.511719 67.671875 37.207031 65.320312 43.726562 59.65625 C 44.242188 59.207031 44.757812 58.730469 45.277344 58.234375 C 45.949219 58.875 46.621094 59.484375 47.285156 60.054688 C 53.601562 65.457031 59.835938 67.636719 63.695312 65.417969 C 67.679688 63.125 68.976562 56.183594 67.292969 47.742188 C 67.164062 47.097656 67.015625 46.4375 66.847656 45.769531 C 67.320312 45.628906 67.78125 45.488281 68.230469 45.339844 C 76.75 42.53125 82.289062 38 82.289062 33.359375 C 82.289062 28.910156 77.101562 24.609375 69.078125 21.863281 Z M 67.230469 42.34375 C 66.824219 42.476562 66.40625 42.605469 65.984375 42.730469 C 65.042969 39.773438 63.777344 36.625 62.21875 33.375 C 63.703125 30.199219 64.921875 27.09375 65.835938 24.15625 C 66.597656 24.375 67.332031 24.605469 68.042969 24.847656 C 74.921875 27.199219 79.113281 30.679688 79.113281 33.359375 C 79.113281 36.214844 74.585938 39.921875 67.230469 42.34375 Z M 64.179688 48.355469 C 64.925781 52.085938 65.03125 55.464844 64.535156 58.101562 C 64.09375 60.472656 63.203125 62.054688 62.105469 62.6875 C 59.761719 64.035156 54.753906 62.285156 49.355469 57.664062 C 48.734375 57.132812 48.113281 56.566406 47.488281 55.972656 C 49.582031 53.695312 51.671875 51.050781 53.714844 48.109375 C 57.304688 47.792969 60.699219 47.273438 63.777344 46.566406 C 63.929688 47.175781 64.0625 47.769531 64.179688 48.355469 Z M 33.320312 62.453125 C 31.035156 63.257812 29.210938 63.28125 28.109375 62.648438 C 25.765625 61.304688 24.792969 56.117188 26.121094 49.160156 C 26.273438 48.367188 26.453125 47.546875 26.664062 46.710938 C 29.707031 47.378906 33.074219 47.859375 36.675781 48.148438 C 38.734375 51.027344 40.886719 53.667969 43.054688 55.980469 C 42.582031 56.4375 42.109375 56.871094 41.636719 57.277344 C 38.753906 59.785156 35.867188 61.5625 33.320312 62.453125 Z M 22.605469 42.328125 C 18.980469 41.09375 15.988281 39.496094 13.9375 37.75 C 12.09375 36.183594 11.164062 34.625 11.164062 33.359375 C 11.164062 30.671875 15.199219 27.238281 21.925781 24.910156 C 22.742188 24.625 23.597656 24.359375 24.484375 24.109375 C 25.414062 27.113281 26.632812 30.257812 28.105469 33.433594 C 26.613281 36.660156 25.375 39.855469 24.4375 42.898438 C 23.804688 42.714844 23.191406 42.527344 22.605469 42.328125 Z M 26.195312 18.015625 C 24.800781 10.921875 25.726562 5.570312 28.0625 4.230469 C 30.546875 2.796875 36.042969 4.835938 41.835938 9.953125 C 42.207031 10.277344 42.578125 10.621094 42.953125 10.972656 C 40.792969 13.277344 38.660156 15.902344 36.621094 18.761719 C 33.128906 19.082031 29.78125 19.597656 26.707031 20.292969 C 26.515625 19.519531 26.34375 18.757812 26.195312 18.015625 Z M 58.242188 25.882812 C 57.507812 24.621094 56.753906 23.386719 55.984375 22.191406 C 58.355469 22.488281 60.625 22.882812 62.761719 23.367188 C 62.121094 25.40625 61.324219 27.539062 60.382812 29.726562 C 59.710938 28.453125 58.996094 27.171875 58.242188 25.882812 Z M 45.175781 13.230469 C 46.640625 14.804688 48.105469 16.566406 49.546875 18.476562 C 48.09375 18.40625 46.625 18.371094 45.140625 18.371094 C 43.671875 18.371094 42.210938 18.40625 40.765625 18.472656 C 42.207031 16.582031 43.6875 14.824219 45.175781 13.230469 Z M 32.023438 25.90625 C 31.289062 27.171875 30.589844 28.445312 29.925781 29.726562 C 29 27.546875 28.210938 25.402344 27.5625 23.332031 C 29.683594 22.863281 31.945312 22.476562 34.300781 22.183594 C 33.519531 23.394531 32.757812 24.636719 32.023438 25.90625 Z M 34.367188 44.757812 C 31.933594 44.492188 29.640625 44.125 27.519531 43.664062 C 28.175781 41.558594 28.984375 39.371094 29.929688 37.144531 C 30.59375 38.421875 31.296875 39.699219 32.035156 40.96875 C 32.789062 42.261719 33.566406 43.523438 34.367188 44.757812 Z M 45.261719 53.710938 C 43.757812 52.097656 42.257812 50.3125 40.792969 48.394531 C 42.214844 48.449219 43.664062 48.476562 45.140625 48.476562 C 46.65625 48.476562 48.152344 48.445312 49.625 48.378906 C 48.179688 50.332031 46.714844 52.121094 45.261719 53.710938 Z M 60.410156 37.03125 C 61.40625 39.285156 62.242188 41.457031 62.90625 43.53125 C 60.753906 44.019531 58.425781 44.410156 55.976562 44.703125 C 56.75 43.488281 57.507812 42.234375 58.257812 40.945312 C 59.015625 39.640625 59.734375 38.335938 60.410156 37.03125 Z M 55.507812 39.371094 C 54.347656 41.371094 53.152344 43.28125 51.941406 45.085938 C 49.738281 45.242188 47.460938 45.320312 45.140625 45.320312 C 42.828125 45.320312 40.578125 45.253906 38.414062 45.109375 C 37.152344 43.285156 35.933594 41.371094 34.78125 39.386719 C 33.628906 37.410156 32.570312 35.417969 31.609375 33.433594 C 32.570312 31.449219 33.628906 29.453125 34.773438 27.480469 C 35.917969 25.503906 37.125 23.597656 38.375 21.78125 C 40.582031 21.613281 42.851562 21.527344 45.140625 21.527344 C 47.441406 21.527344 49.707031 21.613281 51.917969 21.78125 C 53.148438 23.585938 54.347656 25.484375 55.5 27.464844 C 56.664062 29.464844 57.734375 31.449219 58.699219 33.390625 C 57.734375 35.367188 56.667969 37.371094 55.507812 39.371094 Z M 62.054688 4.132812 C 64.546875 5.558594 65.511719 11.3125 63.945312 18.855469 C 63.847656 19.335938 63.734375 19.828125 63.613281 20.324219 C 60.53125 19.617188 57.183594 19.089844 53.679688 18.765625 C 51.636719 15.875 49.523438 13.246094 47.398438 10.972656 C 47.96875 10.425781 48.542969 9.90625 49.109375 9.414062 C 54.59375 4.667969 59.722656 2.796875 62.054688 4.132812 Z M 45.140625 26.761719 C 48.800781 26.761719 51.773438 29.714844 51.773438 33.359375 C 51.773438 37 48.800781 39.953125 45.140625 39.953125 C 41.476562 39.953125 38.503906 37 38.503906 33.359375 C 38.503906 29.714844 41.476562 26.761719 45.140625 26.761719 Z M 45.140625 26.761719 " fill-opacity="1" fill-rule="nonzero"/></g></svg>