<svg xmlns="http://www.w3.org/2000/svg" xmlns:xlink="http://www.w3.org/1999/xlink" width="120" zoomAndPan="magnify" viewBox="0 0 90 67.499998" height="90" preserveAspectRatio="xMidYMid meet" version="1.0"><defs><clipPath id="8c9cf9d389"><path d="M 11 0 L 80 0 L 80 67.003906 L 11 67.003906 Z M 11 0 " clip-rule="nonzero"/></clipPath></defs><g clip-path="url(#8c9cf9d389)"><path fill="#3178c6" d="M 62.78125 4.597656 C 40.234375 -8.660156 11.585938 7.53125 11.335938 33.671875 C 11.089844 59.199219 38.105469 75.6875 60.601562 64.453125 L 36.039062 28.3125 L 36.039062 50.683594 C 36.039062 53.160156 31.296875 53.160156 31.296875 50.683594 L 31.296875 20.695312 C 31.296875 18.726562 34.953125 18.566406 35.988281 20.277344 L 63.984375 62.523438 C 85.015625 48.980469 84.730469 17.503906 62.78125 4.597656 Z M 59.621094 46.929688 L 54.863281 39.664062 L 54.863281 19.769531 C 54.863281 17.914062 59.617188 17.914062 59.617188 19.769531 L 59.617188 46.929688 Z M 59.621094 46.929688 " fill-opacity="1" fill-rule="nonzero"/></g></svg>