<svg xmlns="http://www.w3.org/2000/svg" xmlns:xlink="http://www.w3.org/1999/xlink" width="120" zoomAndPan="magnify" viewBox="0 0 90 67.499998" height="90" preserveAspectRatio="xMidYMid meet" version="1.0"><defs><clipPath id="0073c3b9b0"><path d="M 12.238281 0 L 77.753906 0 L 77.753906 67 L 12.238281 67 Z M 12.238281 0 " clip-rule="nonzero"/></clipPath></defs><g clip-path="url(#0073c3b9b0)"><path fill="#7d2ae7" d="M 44.996094 0.742188 C 26.90625 0.742188 12.238281 15.40625 12.238281 33.5 C 12.238281 51.589844 26.90625 66.257812 44.996094 66.257812 C 63.085938 66.257812 77.753906 51.589844 77.753906 33.5 C 77.753906 15.40625 63.085938 0.742188 44.996094 0.742188 Z M 17.699219 33.5 C 17.699219 18.421875 29.917969 6.203125 44.996094 6.203125 C 60.070312 6.203125 72.292969 18.421875 72.292969 33.5 C 72.292969 45.785156 64.179688 56.175781 53.015625 59.601562 C 53.320312 54.082031 53.214844 50.664062 52.703125 49.347656 C 52.160156 47.957031 51.71875 47.386719 51.453125 47.042969 C 51.277344 46.820312 51.179688 46.695312 51.179688 46.5 C 51.179688 46.171875 51.410156 45.933594 51.871094 45.789062 C 55.894531 44.898438 58.589844 42.425781 59.964844 38.371094 C 61.863281 32.753906 59.152344 28.667969 58.054688 27.015625 C 57.960938 26.878906 57.882812 26.761719 57.816406 26.65625 C 56.964844 25.308594 58.082031 22.03125 59.417969 19.40625 C 54.875 18.492188 53.140625 20.605469 52.144531 21.8125 C 51.742188 22.308594 51.457031 22.652344 51.15625 22.578125 C 50.886719 22.515625 50.601562 22.386719 50.253906 22.234375 C 49.261719 21.800781 47.800781 21.15625 44.996094 21.15625 C 41.519531 21.15625 39.214844 22.371094 38.863281 22.554688 C 38.832031 22.574219 38.816406 22.578125 38.816406 22.578125 C 36.988281 20.03125 34.394531 18.976562 31.03125 19.40625 C 31.957031 23.105469 32.027344 25.523438 31.242188 26.65625 C 30.0625 28.359375 27.847656 32.316406 29.566406 38.371094 C 31.285156 44.429688 37.535156 45.789062 38.726562 45.789062 L 38.734375 45.789062 C 38.828125 45.808594 39.707031 46 39.441406 46.738281 C 39.390625 46.9375 39.355469 47.203125 39.316406 47.507812 C 39.195312 48.476562 39.023438 49.792969 38.097656 50.222656 C 36.875 50.78125 34.1875 51.089844 33.0625 50.386719 C 32.6875 50.15625 32.417969 49.667969 32.09375 49.078125 C 31.445312 47.898438 30.574219 46.320312 28.195312 45.585938 C 24.628906 44.484375 24.851562 45.941406 25.742188 46.300781 C 25.9375 46.378906 26.199219 46.453125 26.496094 46.535156 C 27.542969 46.832031 29.054688 47.261719 29.832031 48.507812 C 30.058594 48.871094 30.289062 49.273438 30.53125 49.679688 C 31.335938 51.0625 32.199219 52.539062 33.0625 53.109375 C 33.808594 53.597656 35.59375 53.792969 38.421875 53.695312 C 38.296875 56.367188 38.234375 58.449219 38.222656 59.949219 C 26.421875 56.9375 17.699219 46.238281 17.699219 33.5 Z M 17.699219 33.5 " fill-opacity="0.85" fill-rule="evenodd"/></g></svg>