<svg xmlns="http://www.w3.org/2000/svg" xmlns:xlink="http://www.w3.org/1999/xlink" width="120" zoomAndPan="magnify" viewBox="0 0 90 67.499998" height="90" preserveAspectRatio="xMidYMid meet" version="1.0"><defs><clipPath id="98114246e0"><path d="M 11.5 0 L 79.992188 0 L 79.992188 67.003906 L 11.5 67.003906 Z M 11.5 0 " clip-rule="nonzero"/></clipPath><clipPath id="89849599e0"><path d="M 11.5 0 L 46 0 L 46 67.003906 L 11.5 67.003906 Z M 11.5 0 " clip-rule="nonzero"/></clipPath></defs><g clip-path="url(#98114246e0)"><path fill="#ffc44d" d="M 14.046875 -0.160156 C 13.363281 -0.160156 12.710938 0.136719 12.253906 0.648438 C 11.800781 1.164062 11.589844 1.847656 11.675781 2.527344 L 18.046875 53.496094 C 18.144531 54.289062 18.636719 54.980469 19.351562 55.339844 L 44.835938 68.082031 C 45.507812 68.417969 46.300781 68.417969 46.972656 68.082031 L 72.457031 55.339844 C 73.171875 54.980469 73.660156 54.289062 73.761719 53.496094 L 80.132812 2.527344 C 80.214844 1.847656 80.003906 1.164062 79.550781 0.648438 C 79.097656 0.136719 78.445312 -0.160156 77.761719 -0.160156 Z M 14.046875 -0.160156 " fill-opacity="1" fill-rule="nonzero"/></g><g clip-path="url(#89849599e0)"><path fill="#e5b045" d="M 45.902344 -0.160156 L 45.902344 68.332031 C 45.539062 68.332031 45.171875 68.25 44.835938 68.082031 L 19.351562 55.339844 C 18.636719 54.980469 18.144531 54.289062 18.046875 53.496094 L 11.675781 2.527344 C 11.589844 1.847656 11.800781 1.164062 12.253906 0.648438 C 12.710938 0.136719 13.363281 -0.160156 14.046875 -0.160156 Z M 45.902344 -0.160156 " fill-opacity="1" fill-rule="evenodd"/></g><path fill="#eceff1" d="M 25.023438 10.175781 C 25.476562 9.679688 26.117188 9.398438 26.789062 9.398438 L 65.019531 9.398438 C 66.335938 9.398438 67.40625 10.46875 67.40625 11.785156 C 67.40625 13.105469 66.335938 14.175781 65.019531 14.175781 L 29.40625 14.175781 L 30.5625 26.917969 L 65.019531 26.917969 C 65.726562 26.917969 66.398438 27.234375 66.851562 27.777344 C 67.304688 28.320312 67.496094 29.039062 67.367188 29.734375 L 64.183594 47.257812 C 64.058594 47.933594 63.652344 48.523438 63.0625 48.878906 L 47.132812 58.4375 C 46.375 58.890625 45.429688 58.890625 44.675781 58.4375 L 28.746094 48.878906 C 28.09375 48.488281 27.664062 47.804688 27.597656 47.046875 L 24.410156 12.003906 C 24.347656 11.335938 24.574219 10.671875 25.023438 10.175781 Z M 31 31.699219 L 32.246094 45.40625 L 45.902344 53.601562 L 59.675781 45.335938 L 62.15625 31.699219 Z M 31 31.699219 " fill-opacity="1" fill-rule="evenodd"/><path fill="#cfd8dc" d="M 45.902344 14.175781 L 29.40625 14.175781 L 30.5625 26.917969 L 45.902344 26.917969 L 45.902344 31.699219 L 31 31.699219 L 32.246094 45.40625 L 45.902344 53.601562 L 45.902344 58.777344 C 45.476562 58.777344 45.054688 58.664062 44.675781 58.4375 L 28.746094 48.878906 C 28.09375 48.488281 27.664062 47.804688 27.597656 47.046875 L 26.003906 29.523438 L 24.410156 12.003906 C 24.347656 11.335938 24.574219 10.671875 25.023438 10.175781 C 25.476562 9.679688 26.117188 9.398438 26.789062 9.398438 L 45.902344 9.398438 Z M 45.902344 14.175781 " fill-opacity="1" fill-rule="evenodd"/></svg>